<svg xmlns="http://www.w3.org/2000/svg" viewBox="0 0 230 60" role="img" aria-labelledby="shopifyTitle">
  <title id="shopifyTitle">Shopify</title>
  <rect width="230" height="60" rx="14" fill="none"/>
  <g transform="translate(18 9)">
    <path d="M8 12c2-7 8-10 15-10 6 0 11 3 14 10" fill="none" stroke="#7AB55C" stroke-width="4" stroke-linecap="round"/>
    <path d="M4 14h32l-4 28H8Z" fill="#95BF47"/>
    <path d="M22 19c-4 0-7 2-7 5 0 7 11 4 11 9 0 2-2 3-4 3-2 0-4-1-6-2l-2 5c2 1 5 2 8 2 5 0 9-3 9-7 0-7-11-5-11-9 0-2 1-3 3-3 2 0 3 0 5 1l2-5c-2-1-4-1-8-1Z" fill="#FFFFFF"/>
  </g>
  <text x="68" y="38" fill="#1F2D3D" font-family="Arial, Helvetica, sans-serif" font-size="26" font-weight="700">Shopify</text>
</svg>
