<svg width="1600" height="1000" viewBox="0 0 1600 1000" fill="none" xmlns="http://www.w3.org/2000/svg">
  <rect width="1600" height="1000" rx="40" fill="#FDF8F2"/>
  <circle cx="1305" cy="155" r="170" fill="#D9F1E8"/>
  <circle cx="240" cy="825" r="190" fill="#EBE2FB"/>
  <circle cx="1320" cy="840" r="120" fill="#FFE4D8"/>
  <rect x="112" y="120" width="640" height="760" rx="34" fill="#FFFDF9"/>
  <rect x="158" y="174" width="548" height="84" rx="24" fill="#F8F2EA"/>
  <rect x="188" y="204" width="198" height="20" rx="10" fill="#E08F78"/>
  <rect x="158" y="294" width="548" height="162" rx="28" fill="#F6FBF8"/>
  <rect x="192" y="330" width="194" height="20" rx="10" fill="#34292E"/>
  <rect x="192" y="366" width="286" height="16" rx="8" fill="#8F878A"/>
  <rect x="192" y="398" width="128" height="34" rx="17" fill="#D9F1E8"/>
  <rect x="158" y="488" width="260" height="154" rx="28" fill="#FFF2EA"/>
  <rect x="446" y="488" width="260" height="154" rx="28" fill="#F4EFFB"/>
  <rect x="188" y="524" width="124" height="18" rx="9" fill="#54233D"/>
  <rect x="188" y="556" width="164" height="14" rx="7" fill="#8F878A"/>
  <rect x="476" y="524" width="134" height="18" rx="9" fill="#54233D"/>
  <rect x="476" y="556" width="146" height="14" rx="7" fill="#8F878A"/>
  <rect x="158" y="676" width="548" height="160" rx="28" fill="#FBF7F1"/>
  <rect x="192" y="716" width="250" height="18" rx="9" fill="#34292E"/>
  <rect x="192" y="750" width="468" height="14" rx="7" fill="#AAA0A3"/>
  <rect x="192" y="780" width="412" height="14" rx="7" fill="#AAA0A3"/>
  <rect x="836" y="180" width="640" height="620" rx="40" fill="#FFFDF9"/>
  <rect x="900" y="248" width="338" height="420" rx="30" fill="#F8F2EA"/>
  <rect x="940" y="300" width="258" height="220" rx="24" fill="#DCEFE7"/>
  <circle cx="1068" cy="386" r="72" fill="#E08F78"/>
  <rect x="1000" y="470" width="136" height="132" rx="28" fill="#B97361"/>
  <rect x="1268" y="310" width="144" height="18" rx="9" fill="#34292E"/>
  <rect x="1268" y="348" width="132" height="14" rx="7" fill="#8F878A"/>
  <rect x="1268" y="404" width="114" height="18" rx="9" fill="#34292E"/>
  <rect x="1268" y="442" width="120" height="14" rx="7" fill="#8F878A"/>
  <rect x="1268" y="498" width="126" height="18" rx="9" fill="#34292E"/>
  <rect x="1268" y="536" width="110" height="14" rx="7" fill="#8F878A"/>
  <rect x="1268" y="592" width="122" height="48" rx="24" fill="#E08F78"/>
  <rect x="1034" y="112" width="294" height="64" rx="28" fill="#34292E" fill-opacity="0.92"/>
  <rect x="1082" y="136" width="198" height="16" rx="8" fill="#FFF8F2"/>
</svg>
