<svg width="1200" height="900" viewBox="0 0 1200 900" fill="none" xmlns="http://www.w3.org/2000/svg">
  <rect width="1200" height="900" rx="40" fill="#FDF8F2"/>
  <circle cx="948" cy="164" r="118" fill="#FFE4D8"/>
  <circle cx="252" cy="168" r="98" fill="#D9F1E8"/>
  <rect x="110" y="120" width="980" height="660" rx="38" fill="#FFFDF9"/>
  <rect x="154" y="170" width="892" height="120" rx="28" fill="#F8F2EA"/>
  <rect x="202" y="214" width="182" height="18" rx="9" fill="#34292E"/>
  <rect x="154" y="332" width="420" height="388" rx="32" fill="#F6FBF8"/>
  <rect x="626" y="332" width="420" height="388" rx="32" fill="#FFF2EA"/>
  <rect x="214" y="392" width="126" height="190" rx="24" fill="#B8D6C8"/>
  <rect x="364" y="432" width="126" height="150" rx="24" fill="#E08F78"/>
  <rect x="686" y="388" width="300" height="26" rx="13" fill="#34292E"/>
  <rect x="686" y="434" width="248" height="16" rx="8" fill="#8F878A"/>
  <rect x="686" y="470" width="282" height="16" rx="8" fill="#8F878A"/>
  <rect x="686" y="516" width="206" height="44" rx="22" fill="#54233D"/>
  <rect x="716" y="530" width="148" height="16" rx="8" fill="#FFF8F2"/>
</svg>
